<?xml version="1.0" encoding="UTF-8"?><svg id="Calque_1" xmlns="http://www.w3.org/2000/svg" viewBox="0 0 480.1 64.01"><defs><style>.cls-1{fill:blue;}</style></defs><path class="cls-1" d="m37.28,13.43v29.74c0,13.43-8.76,20.85-22.32,20.85-4.35,0-9.59-1.47-13.43-3.39l1.79-6.52c3.77,2.17,8.44,3.45,12.79,3.45,7.67,0,13.94-4.35,13.94-14.2v-1.28c-2.94,4.67-7.67,6.84-12.53,6.84C8.95,48.92,0,42.27,0,30.7S8.95,12.47,17.52,12.47c4.86,0,9.66,2.24,12.53,6.91l2.05-5.95h5.18Zm-18.29,29.54c5.44,0,10.87-3.77,11.06-11.83v-.9c-.26-7.99-5.63-11.83-11.06-11.83-5.82,0-11.7,4.29-11.7,12.28s5.88,12.28,11.7,12.28Z"/><path class="cls-1" d="m47.51,16.5c3.65-2.24,9.59-3.84,15.48-3.84,8.38,0,16.37,3.33,16.31,12.66l-.06,12.28v.38c0,2.88.51,4.16,3.52,4.16h.45v5.82c-7.29,0-11.19-1.66-11.19-7.87-3.07,4.99-9.46,7.99-16.5,8.19-7.67.26-11.38-4.35-11.38-9.27,0-5.75,5.12-12.02,14.84-11.77l7.87.13c1.79.06,4.99.13,5.18-2.05-.06-4.67-4.48-6.27-9.46-6.27s-10.17,1.47-12.92,3.13l-2.11-5.69Zm19.12,16.56l-7.48-.13c-4.8-.06-7.42,2.81-7.42,5.37,0,2.17,1.92,4.16,6.14,3.96,5.31-.32,13.88-3.96,14.13-10.17v-.38c-1.34,1.02-3.13,1.34-5.37,1.34Z"/><path class="cls-1" d="m89.46,0h7.23v47.96h-7.23V0Z"/><path class="cls-1" d="m123.73,12.34c9.78,0,17.39,7.29,17.65,18.55l-29.86-.06c.26,5.95,4.41,11.64,12.41,11.64,4.48,0,8.57-1.6,11.13-5.37l5.05,4.41c-3.9,4.73-10.17,7.61-16.37,7.61-9.02,0-19.5-6.14-19.5-18.35s10.55-18.42,19.5-18.42Zm10.42,13.56c-1.09-3.77-4.67-7.87-10.17-7.87-6.27,0-10.17,3.52-11.7,7.87h21.87Z"/><path class="cls-1" d="m148.1,47.96v-25.52c0-1.34,0-3.2-1.54-3.2h-1.47v-5.82h1.47c3.52,0,8.76,1.15,8.76,5.76v.19c2.56-3.71,6.27-6.46,11-6.46,1.85,0,3.84.45,5.95,1.34l-1.73,5.82c-1.02-.38-2.24-.58-3.52-.58-5.31,0-11.7,3.39-11.7,8.76v19.7h-7.23Z"/><path class="cls-1" d="m181.86,1.34c2.56,0,4.28,1.6,4.28,4.09s-1.73,4.09-4.28,4.09-4.22-1.66-4.22-4.09,1.66-4.09,4.22-4.09Zm-3.58,46.62V13.43h7.23v34.53h-7.23Z"/><path class="cls-1" d="m212.23,12.34c9.78,0,17.39,7.29,17.65,18.55l-29.86-.06c.26,5.95,4.41,11.64,12.41,11.64,4.48,0,8.57-1.6,11.13-5.37l5.05,4.41c-3.9,4.73-10.17,7.61-16.37,7.61-9.02,0-19.5-6.14-19.5-18.35s10.55-18.42,19.5-18.42Zm10.42,13.56c-1.09-3.77-4.67-7.87-10.17-7.87-6.27,0-10.17,3.52-11.7,7.87h21.87Z"/><path class="cls-1" d="m273.68,12.34c6.52,0,12.6,2.69,16.31,7.55l-5.18,4.6c-2.69-3.84-6.71-5.37-10.94-5.37-8.31,0-12.41,5.82-12.41,11.57s4.09,11.58,12.41,11.58c4.48,0,8.31-1.6,10.94-5.31l5.24,4.54c-3.9,4.73-10.17,7.61-16.37,7.61-9.02,0-19.5-6.14-19.5-18.35s10.55-18.42,19.5-18.42Z"/><path class="cls-1" d="m297.21,13.43h7.23v20.27c0,6.39,4.86,9.53,9.78,9.53s10.17-3.26,10.36-9.53V13.43h7.23v29.74c0,13.43-7.99,20.85-21.55,20.85-4.35,0-9.66-1.47-13.49-3.39l1.85-6.52c3.13,1.86,8.12,3.2,12.28,3.2,10.87,0,13.69-5.82,13.69-13.94v-.32c-2.88,4.09-7.61,6.08-12.34,6.08-7.48,0-15.03-5.12-15.03-15.41V13.43Z"/><path class="cls-1" d="m341.14,0h7.23v19.44c2.88-4.73,7.67-6.97,12.6-6.97,8.57,0,17.52,6.71,17.52,18.23s-8.95,18.23-17.52,18.23c-4.99,0-9.85-2.24-12.73-7.16l-.96,6.2h-6.14V0Zm18.35,18.42c-5.56,0-11.06,3.96-11.06,12.28s5.5,12.28,11.06,12.28,11.7-4.22,11.7-12.28-5.95-12.28-11.7-12.28Z"/><path class="cls-1" d="m403.75,12.34c9.72,0,17.39,7.29,17.59,18.55l-29.8-.06c.26,5.95,4.35,11.64,12.34,11.64,4.54,0,8.57-1.6,11.19-5.37l4.99,4.41c-3.84,4.73-10.1,7.61-16.37,7.61-8.95,0-19.5-6.14-19.5-18.35s10.55-18.42,19.57-18.42Zm10.42,13.56c-1.09-3.77-4.67-7.87-10.23-7.87-6.27,0-10.17,3.52-11.7,7.87h21.93Zm-13.94-24.24l6.84,7.16-1.41,1.6-7.99-5.95,2.56-2.81Z"/><path class="cls-1" d="m428.17,0h7.23v47.96h-7.23V0Z"/><path class="cls-1" d="m462.45,12.34c9.78,0,17.39,7.29,17.65,18.55l-29.86-.06c.26,5.95,4.41,11.64,12.41,11.64,4.48,0,8.57-1.6,11.13-5.37l5.05,4.41c-3.9,4.73-10.17,7.61-16.37,7.61-9.02,0-19.5-6.14-19.5-18.35s10.55-18.42,19.5-18.42Zm10.42,13.56c-1.09-3.77-4.67-7.87-10.17-7.87-6.27,0-10.17,3.52-11.7,7.87h21.87Z"/></svg>